# xmcd
#
# Track frame offsets: 
#        150
#        22708
#        39483
#        54808
#        79183
#        98323
#        118483
#        142360
#        164723
#
# Disc length: 2552 seconds
#
# Revision: 1
# Processed by: cddbd v1.5.1PL2 Copyright (c) Steve Scherf et al.
# Submitted via: ExactAudioCopy v0.95b2
#
DISCID=7009f609
DTITLE=David Malone and The Sugar Bears - I Got The Dog In Me
DYEAR=1994
DGENRE=Blues
TTITLE0=I Got The Dog In Me
TTITLE1=Do The Romp
TTITLE2=You're Touching Me The Wrong Way
TTITLE3=Raunchy Stuff
TTITLE4=She's Miine
TTITLE5=Home Alone
TTITLE6=I've Got The Time
TTITLE7=Trying To Figure You Out
TTITLE8=Trying To Make It Over
EXTD=YEAR: 1994
EXTT0=
EXTT1=
EXTT2=
EXTT3=
EXTT4=
EXTT5=
EXTT6=
EXTT7=
EXTT8=
PLAYORDER=
